<?xml version="1.0" encoding="ISO8859-1"?>
<svg xmlns="http://www.w3.org/2000/svg" xmlns:xlink="http://www.w3.org/1999/xlink" width="288px" height="252px" viewBox="0 0 288 252" version="1.1" id="Fig:dens">
  <metadata xmlns:gridsvg="http://www.stat.auckland.ac.nz/~paul/R/gridSVG/">
    <gridsvg:generator name="gridSVG" version="1.7-1" time="2020-04-19 13:05:58"/>
    <gridsvg:argument name="name" value="./results/QCDir.Norm/dens.svg"/>
    <gridsvg:argument name="exportCoords" value="none"/>
    <gridsvg:argument name="exportMappings" value="none"/>
    <gridsvg:argument name="exportJS" value="none"/>
    <gridsvg:argument name="res" value="72"/>
    <gridsvg:argument name="prefix" value="Fig:dens"/>
    <gridsvg:argument name="addClasses" value="FALSE"/>
    <gridsvg:argument name="indent" value="TRUE"/>
    <gridsvg:argument name="htmlWrapper" value="FALSE"/>
    <gridsvg:argument name="usePaths" value="none"/>
    <gridsvg:argument name="uniqueNames" value="TRUE"/>
    <gridsvg:separator name="id.sep" value="."/>
    <gridsvg:separator name="gPath.sep" value="::"/>
    <gridsvg:separator name="vpPath.sep" value="::"/>
  </metadata>
  <g transform="translate(0, 252) scale(1, -1)">
    <g id="Fig:densgridSVG" fill="none" stroke="rgb(0,0,0)" stroke-dasharray="none" stroke-width="0.75" font-size="12" font-family="Helvetica, Arial, FreeSans, Liberation Sans, Nimbus Sans L, sans-serif" opacity="1" stroke-linecap="round" stroke-linejoin="round" stroke-miterlimit="10" stroke-opacity="1" fill-opacity="0" font-weight="normal" font-style="normal">
      <g id="Fig:densplot_01.background.1">
        <rect id="Fig:densplot_01.background.1.1" x="0" y="0" width="288" height="252" transform="" fill="none" stroke="none" stroke-opacity="0" fill-opacity="0"/>
      </g>
      <g id="Fig:densplot_01.toplevel.vp.1" font-size="12">
        <g id="Fig:densplot_01.ylab.vp.1">
          <g id="Fig:densplot_01.ylab.1">
            <g id="Fig:densplot_01.ylab.1.1" transform="translate(10.31, 138.09)" stroke-width="0.1">
              <g id="Fig:densplot_01.ylab.1.1.scale" transform="scale(1, -1)">
                <text x="0" y="0" id="Fig:densplot_01.ylab.1.1.text" transform="rotate(-90)" text-anchor="middle" opacity="1" stroke="rgb(0,0,0)" fill="rgb(0,0,0)" stroke-opacity="1" fill-opacity="1" font-size="12" font-weight="normal" font-style="normal">
                  <tspan id="Fig:densplot_01.ylab.1.1.tspan.1" dy="4.31" x="0">Density</tspan>
                </text>
              </g>
            </g>
          </g>
        </g>
        <g id="Fig:densplot_01.figure.vp.1"/>
        <defs>
          <clipPath id="Fig:densplot_01.panel.1.1.vp.1.clipPath">
            <rect x="44.8" y="42.19" width="231.2" height="191.81" fill="none" stroke="none"/>
          </clipPath>
        </defs>
        <g id="Fig:densplot_01.panel.1.1.vp.1" clip-path="url(#Fig:densplot_01.panel.1.1.vp.1.clipPath)"/>
        <g id="Fig:densplot_01.strip.1.1.off.vp.1"/>
        <g id="Fig:densplot_01.strip.left.1.1.off.vp.1">
          <g id="Fig:densplot_01.ticks.left.panel.1.1.1">
            <polyline id="Fig:densplot_01.ticks.left.panel.1.1.1.1" points="44.8,53.96 39.13,53.96" stroke="rgb(0,0,0)" opacity="1" stroke-dasharray="none" stroke-width="0.75" stroke-opacity="1" fill="none"/>
            <polyline id="Fig:densplot_01.ticks.left.panel.1.1.1.2" points="44.8,87.36 39.13,87.36" stroke="rgb(0,0,0)" opacity="1" stroke-dasharray="none" stroke-width="0.75" stroke-opacity="1" fill="none"/>
            <polyline id="Fig:densplot_01.ticks.left.panel.1.1.1.3" points="44.8,120.76 39.13,120.76" stroke="rgb(0,0,0)" opacity="1" stroke-dasharray="none" stroke-width="0.75" stroke-opacity="1" fill="none"/>
            <polyline id="Fig:densplot_01.ticks.left.panel.1.1.1.4" points="44.8,154.17 39.13,154.17" stroke="rgb(0,0,0)" opacity="1" stroke-dasharray="none" stroke-width="0.75" stroke-opacity="1" fill="none"/>
            <polyline id="Fig:densplot_01.ticks.left.panel.1.1.1.5" points="44.8,187.57 39.13,187.57" stroke="rgb(0,0,0)" opacity="1" stroke-dasharray="none" stroke-width="0.75" stroke-opacity="1" fill="none"/>
            <polyline id="Fig:densplot_01.ticks.left.panel.1.1.1.6" points="44.8,220.98 39.13,220.98" stroke="rgb(0,0,0)" opacity="1" stroke-dasharray="none" stroke-width="0.75" stroke-opacity="1" fill="none"/>
          </g>
          <g id="Fig:densplot_01.ticklabels.left.panel.1.1.1">
            <g id="Fig:densplot_01.ticklabels.left.panel.1.1.1.1" transform="translate(33.47, 53.96)" stroke-width="0.1">
              <g id="Fig:densplot_01.ticklabels.left.panel.1.1.1.1.scale" transform="scale(1, -1)">
                <text x="0" y="0" id="Fig:densplot_01.ticklabels.left.panel.1.1.1.1.text" transform="rotate(-90)" text-anchor="middle" stroke="rgb(0,0,0)" opacity="1" fill="rgb(0,0,0)" stroke-opacity="1" fill-opacity="1" font-size="9.6" font-weight="normal" font-style="normal">
                  <tspan id="Fig:densplot_01.ticklabels.left.panel.1.1.1.1.tspan.1" dy="0" x="0">0.00</tspan>
                </text>
              </g>
            </g>
            <g id="Fig:densplot_01.ticklabels.left.panel.1.1.1.2" transform="translate(33.47, 87.36)" stroke-width="0.1">
              <g id="Fig:densplot_01.ticklabels.left.panel.1.1.1.2.scale" transform="scale(1, -1)">
                <text x="0" y="0" id="Fig:densplot_01.ticklabels.left.panel.1.1.1.2.text" transform="rotate(-90)" text-anchor="middle" stroke="rgb(0,0,0)" opacity="1" fill="rgb(0,0,0)" stroke-opacity="1" fill-opacity="1" font-size="9.6" font-weight="normal" font-style="normal">
                  <tspan id="Fig:densplot_01.ticklabels.left.panel.1.1.1.2.tspan.1" dy="0" x="0">0.05</tspan>
                </text>
              </g>
            </g>
            <g id="Fig:densplot_01.ticklabels.left.panel.1.1.1.3" transform="translate(33.47, 120.76)" stroke-width="0.1">
              <g id="Fig:densplot_01.ticklabels.left.panel.1.1.1.3.scale" transform="scale(1, -1)">
                <text x="0" y="0" id="Fig:densplot_01.ticklabels.left.panel.1.1.1.3.text" transform="rotate(-90)" text-anchor="middle" stroke="rgb(0,0,0)" opacity="1" fill="rgb(0,0,0)" stroke-opacity="1" fill-opacity="1" font-size="9.6" font-weight="normal" font-style="normal">
                  <tspan id="Fig:densplot_01.ticklabels.left.panel.1.1.1.3.tspan.1" dy="0" x="0">0.10</tspan>
                </text>
              </g>
            </g>
            <g id="Fig:densplot_01.ticklabels.left.panel.1.1.1.4" transform="translate(33.47, 154.17)" stroke-width="0.1">
              <g id="Fig:densplot_01.ticklabels.left.panel.1.1.1.4.scale" transform="scale(1, -1)">
                <text x="0" y="0" id="Fig:densplot_01.ticklabels.left.panel.1.1.1.4.text" transform="rotate(-90)" text-anchor="middle" stroke="rgb(0,0,0)" opacity="1" fill="rgb(0,0,0)" stroke-opacity="1" fill-opacity="1" font-size="9.6" font-weight="normal" font-style="normal">
                  <tspan id="Fig:densplot_01.ticklabels.left.panel.1.1.1.4.tspan.1" dy="0" x="0">0.15</tspan>
                </text>
              </g>
            </g>
            <g id="Fig:densplot_01.ticklabels.left.panel.1.1.1.5" transform="translate(33.47, 187.57)" stroke-width="0.1">
              <g id="Fig:densplot_01.ticklabels.left.panel.1.1.1.5.scale" transform="scale(1, -1)">
                <text x="0" y="0" id="Fig:densplot_01.ticklabels.left.panel.1.1.1.5.text" transform="rotate(-90)" text-anchor="middle" stroke="rgb(0,0,0)" opacity="1" fill="rgb(0,0,0)" stroke-opacity="1" fill-opacity="1" font-size="9.6" font-weight="normal" font-style="normal">
                  <tspan id="Fig:densplot_01.ticklabels.left.panel.1.1.1.5.tspan.1" dy="0" x="0">0.20</tspan>
                </text>
              </g>
            </g>
            <g id="Fig:densplot_01.ticklabels.left.panel.1.1.1.6" transform="translate(33.47, 220.98)" stroke-width="0.1">
              <g id="Fig:densplot_01.ticklabels.left.panel.1.1.1.6.scale" transform="scale(1, -1)">
                <text x="0" y="0" id="Fig:densplot_01.ticklabels.left.panel.1.1.1.6.text" transform="rotate(-90)" text-anchor="middle" stroke="rgb(0,0,0)" opacity="1" fill="rgb(0,0,0)" stroke-opacity="1" fill-opacity="1" font-size="9.6" font-weight="normal" font-style="normal">
                  <tspan id="Fig:densplot_01.ticklabels.left.panel.1.1.1.6.tspan.1" dy="0" x="0">0.25</tspan>
                </text>
              </g>
            </g>
          </g>
        </g>
        <g id="Fig:densplot_01.panel.1.1.off.vp.1">
          <g id="Fig:densplot_01.ticks.bottom.panel.1.1.1">
            <polyline id="Fig:densplot_01.ticks.bottom.panel.1.1.1.1" points="50.07,42.19 50.07,36.52" stroke="rgb(0,0,0)" opacity="1" stroke-dasharray="none" stroke-width="0.75" stroke-opacity="1" fill="none"/>
            <polyline id="Fig:densplot_01.ticks.bottom.panel.1.1.1.2" points="90.57,42.19 90.57,36.52" stroke="rgb(0,0,0)" opacity="1" stroke-dasharray="none" stroke-width="0.75" stroke-opacity="1" fill="none"/>
            <polyline id="Fig:densplot_01.ticks.bottom.panel.1.1.1.3" points="131.07,42.19 131.07,36.52" stroke="rgb(0,0,0)" opacity="1" stroke-dasharray="none" stroke-width="0.75" stroke-opacity="1" fill="none"/>
            <polyline id="Fig:densplot_01.ticks.bottom.panel.1.1.1.4" points="171.57,42.19 171.57,36.52" stroke="rgb(0,0,0)" opacity="1" stroke-dasharray="none" stroke-width="0.75" stroke-opacity="1" fill="none"/>
            <polyline id="Fig:densplot_01.ticks.bottom.panel.1.1.1.5" points="212.07,42.19 212.07,36.52" stroke="rgb(0,0,0)" opacity="1" stroke-dasharray="none" stroke-width="0.75" stroke-opacity="1" fill="none"/>
            <polyline id="Fig:densplot_01.ticks.bottom.panel.1.1.1.6" points="252.57,42.19 252.57,36.52" stroke="rgb(0,0,0)" opacity="1" stroke-dasharray="none" stroke-width="0.75" stroke-opacity="1" fill="none"/>
          </g>
          <g id="Fig:densplot_01.ticklabels.bottom.panel.1.1.1">
            <g id="Fig:densplot_01.ticklabels.bottom.panel.1.1.1.1" transform="translate(50.07, 30.85)" stroke-width="0.1">
              <g id="Fig:densplot_01.ticklabels.bottom.panel.1.1.1.1.scale" transform="scale(1, -1)">
                <text x="0" y="0" id="Fig:densplot_01.ticklabels.bottom.panel.1.1.1.1.text" text-anchor="middle" stroke="rgb(0,0,0)" opacity="1" fill="rgb(0,0,0)" stroke-opacity="1" fill-opacity="1" font-size="9.6" font-weight="normal" font-style="normal">
                  <tspan id="Fig:densplot_01.ticklabels.bottom.panel.1.1.1.1.tspan.1" dy="7.18" x="0">2</tspan>
                </text>
              </g>
            </g>
            <g id="Fig:densplot_01.ticklabels.bottom.panel.1.1.1.2" transform="translate(90.57, 30.85)" stroke-width="0.1">
              <g id="Fig:densplot_01.ticklabels.bottom.panel.1.1.1.2.scale" transform="scale(1, -1)">
                <text x="0" y="0" id="Fig:densplot_01.ticklabels.bottom.panel.1.1.1.2.text" text-anchor="middle" stroke="rgb(0,0,0)" opacity="1" fill="rgb(0,0,0)" stroke-opacity="1" fill-opacity="1" font-size="9.6" font-weight="normal" font-style="normal">
                  <tspan id="Fig:densplot_01.ticklabels.bottom.panel.1.1.1.2.tspan.1" dy="7.18" x="0">4</tspan>
                </text>
              </g>
            </g>
            <g id="Fig:densplot_01.ticklabels.bottom.panel.1.1.1.3" transform="translate(131.07, 30.85)" stroke-width="0.1">
              <g id="Fig:densplot_01.ticklabels.bottom.panel.1.1.1.3.scale" transform="scale(1, -1)">
                <text x="0" y="0" id="Fig:densplot_01.ticklabels.bottom.panel.1.1.1.3.text" text-anchor="middle" stroke="rgb(0,0,0)" opacity="1" fill="rgb(0,0,0)" stroke-opacity="1" fill-opacity="1" font-size="9.6" font-weight="normal" font-style="normal">
                  <tspan id="Fig:densplot_01.ticklabels.bottom.panel.1.1.1.3.tspan.1" dy="7.18" x="0">6</tspan>
                </text>
              </g>
            </g>
            <g id="Fig:densplot_01.ticklabels.bottom.panel.1.1.1.4" transform="translate(171.57, 30.85)" stroke-width="0.1">
              <g id="Fig:densplot_01.ticklabels.bottom.panel.1.1.1.4.scale" transform="scale(1, -1)">
                <text x="0" y="0" id="Fig:densplot_01.ticklabels.bottom.panel.1.1.1.4.text" text-anchor="middle" stroke="rgb(0,0,0)" opacity="1" fill="rgb(0,0,0)" stroke-opacity="1" fill-opacity="1" font-size="9.6" font-weight="normal" font-style="normal">
                  <tspan id="Fig:densplot_01.ticklabels.bottom.panel.1.1.1.4.tspan.1" dy="7.18" x="0">8</tspan>
                </text>
              </g>
            </g>
            <g id="Fig:densplot_01.ticklabels.bottom.panel.1.1.1.5" transform="translate(212.07, 30.85)" stroke-width="0.1">
              <g id="Fig:densplot_01.ticklabels.bottom.panel.1.1.1.5.scale" transform="scale(1, -1)">
                <text x="0" y="0" id="Fig:densplot_01.ticklabels.bottom.panel.1.1.1.5.text" text-anchor="middle" stroke="rgb(0,0,0)" opacity="1" fill="rgb(0,0,0)" stroke-opacity="1" fill-opacity="1" font-size="9.6" font-weight="normal" font-style="normal">
                  <tspan id="Fig:densplot_01.ticklabels.bottom.panel.1.1.1.5.tspan.1" dy="7.18" x="0">10</tspan>
                </text>
              </g>
            </g>
            <g id="Fig:densplot_01.ticklabels.bottom.panel.1.1.1.6" transform="translate(252.57, 30.85)" stroke-width="0.1">
              <g id="Fig:densplot_01.ticklabels.bottom.panel.1.1.1.6.scale" transform="scale(1, -1)">
                <text x="0" y="0" id="Fig:densplot_01.ticklabels.bottom.panel.1.1.1.6.text" text-anchor="middle" stroke="rgb(0,0,0)" opacity="1" fill="rgb(0,0,0)" stroke-opacity="1" fill-opacity="1" font-size="9.6" font-weight="normal" font-style="normal">
                  <tspan id="Fig:densplot_01.ticklabels.bottom.panel.1.1.1.6.tspan.1" dy="7.18" x="0">12</tspan>
                </text>
              </g>
            </g>
          </g>
        </g>
        <defs>
          <clipPath id="Fig:densplot_01.panel.1.1.vp.2.clipPath">
            <rect x="44.8" y="42.19" width="231.2" height="191.81" fill="none" stroke="none"/>
          </clipPath>
        </defs>
        <g id="Fig:densplot_01.panel.1.1.vp.2" clip-path="url(#Fig:densplot_01.panel.1.1.vp.2.clipPath)">
          <g id="Fig:densplot_01.xyplot.lines.group.1.panel.1.1.1">
            <polyline id="Fig:densplot_01.xyplot.lines.group.1.panel.1.1.1.1" points="59.12,54 59.51,54.01 59.91,54.03 60.31,54.06 60.7,54.09 61.1,54.13 61.5,54.18 61.89,54.24 62.29,54.31 62.69,54.41 63.08,54.52 63.48,54.66 63.88,54.83 64.27,55.03 64.67,55.26 65.06,55.54 65.46,55.86 65.86,56.23 66.25,56.66 66.65,57.16 67.05,57.72 67.44,58.35 67.84,59.05 68.24,59.82 68.63,60.68 69.03,61.62 69.43,62.65 69.82,63.75 70.22,64.94 70.62,66.19 71.01,67.52 71.41,68.92 71.8,70.39 72.2,71.91 72.6,73.47 72.99,75.07 73.39,76.7 73.79,78.36 74.18,80.02 74.58,81.69 74.98,83.35 75.37,84.99 75.77,86.62 76.17,88.22 76.56,89.78 76.96,91.3 77.36,92.77 77.75,94.2 78.15,95.58 78.54,96.91 78.94,98.19 79.34,99.4 79.73,100.56 80.13,101.67 80.53,102.72 80.92,103.71 81.32,104.65 81.72,105.54 82.11,106.36 82.51,107.13 82.91,107.84 83.3,108.5 83.7,109.1 84.1,109.66 84.49,110.16 84.89,110.6 85.28,111 85.68,111.35 86.08,111.66 86.47,111.93 86.87,112.17 87.27,112.37 87.66,112.55 88.06,112.71 88.46,112.85 88.85,112.98 89.25,113.11 89.65,113.23 90.04,113.35 90.44,113.49 90.84,113.63 91.23,113.79 91.63,113.97 92.02,114.16 92.42,114.37 92.82,114.61 93.21,114.87 93.61,115.15 94.01,115.44 94.4,115.76 94.8,116.1 95.2,116.46 95.59,116.84 95.99,117.24 96.39,117.65 96.78,118.07 97.18,118.51 97.58,118.95 97.97,119.42 98.37,119.89 98.76,120.37 99.16,120.86 99.56,121.36 99.95,121.87 100.35,122.39 100.75,122.93 101.14,123.47 101.54,124.03 101.94,124.6 102.33,125.18 102.73,125.78 103.13,126.39 103.52,127.03 103.92,127.68 104.32,128.36 104.71,129.05 105.11,129.76 105.5,130.5 105.9,131.27 106.3,132.05 106.69,132.86 107.09,133.69 107.49,134.54 107.88,135.41 108.28,136.3 108.68,137.21 109.07,138.13 109.47,139.07 109.87,140.02 110.26,140.99 110.66,141.96 111.06,142.95 111.45,143.94 111.85,144.94 112.24,145.95 112.64,146.97 113.04,148 113.43,149.04 113.83,150.09 114.23,151.14 114.62,152.21 115.02,153.29 115.42,154.38 115.81,155.48 116.21,156.59 116.61,157.71 117,158.84 117.4,159.98 117.8,161.13 118.19,162.28 118.59,163.43 118.98,164.59 119.38,165.74 119.78,166.88 120.17,168.02 120.57,169.15 120.97,170.28 121.36,171.38 121.76,172.47 122.16,173.55 122.55,174.61 122.95,175.65 123.35,176.68 123.74,177.7 124.14,178.7 124.54,179.68 124.93,180.66 125.33,181.63 125.72,182.58 126.12,183.53 126.52,184.48 126.91,185.41 127.31,186.34 127.71,187.27 128.1,188.19 128.5,189.1 128.9,190 129.29,190.89 129.69,191.77 130.09,192.63 130.48,193.47 130.88,194.3 131.28,195.1 131.67,195.87 132.07,196.6 132.46,197.31 132.86,197.98 133.26,198.61 133.65,199.2 134.05,199.75 134.45,200.25 134.84,200.7 135.24,201.1 135.64,201.47 136.03,201.78 136.43,202.06 136.83,202.29 137.22,202.47 137.62,202.61 138.02,202.72 138.41,202.8 138.81,202.84 139.2,202.86 139.6,202.85 140,202.82 140.39,202.77 140.79,202.7 141.19,202.63 141.58,202.54 141.98,202.44 142.38,202.33 142.77,202.21 143.17,202.08 143.57,201.94 143.96,201.79 144.36,201.63 144.76,201.46 145.15,201.26 145.55,201.05 145.95,200.81 146.34,200.56 146.74,200.28 147.13,199.97 147.53,199.62 147.93,199.25 148.32,198.85 148.72,198.42 149.12,197.96 149.51,197.47 149.91,196.96 150.31,196.42 150.7,195.86 151.1,195.28 151.5,194.69 151.89,194.08 152.29,193.47 152.69,192.84 153.08,192.21 153.48,191.57 153.87,190.93 154.27,190.29 154.67,189.64 155.06,188.98 155.46,188.31 155.86,187.64 156.25,186.95 156.65,186.25 157.05,185.54 157.44,184.8 157.84,184.04 158.24,183.26 158.63,182.46 159.03,181.63 159.43,180.77 159.82,179.9 160.22,179 160.61,178.08 161.01,177.14 161.41,176.2 161.8,175.24 162.2,174.28 162.6,173.32 162.99,172.37 163.39,171.44 163.79,170.52 164.18,169.62 164.58,168.75 164.98,167.9 165.37,167.09 165.77,166.31 166.17,165.57 166.56,164.87 166.96,164.2 167.35,163.57 167.75,162.96 168.15,162.39 168.54,161.84 168.94,161.31 169.34,160.79 169.73,160.28 170.13,159.79 170.53,159.29 170.92,158.78 171.32,158.27 171.72,157.75 172.11,157.21 172.51,156.65 172.91,156.08 173.3,155.48 173.7,154.85 174.09,154.2 174.49,153.53 174.89,152.83 175.28,152.1 175.68,151.36 176.08,150.59 176.47,149.8 176.87,148.99 177.27,148.16 177.66,147.32 178.06,146.46 178.46,145.59 178.85,144.71 179.25,143.81 179.65,142.92 180.04,142.01 180.44,141.11 180.83,140.2 181.23,139.3 181.63,138.4 182.02,137.5 182.42,136.61 182.82,135.73 183.21,134.87 183.61,134.01 184.01,133.17 184.4,132.35 184.8,131.54 185.2,130.75 185.59,129.98 185.99,129.22 186.39,128.48 186.78,127.76 187.18,127.05 187.57,126.36 187.97,125.68 188.37,125.01 188.76,124.36 189.16,123.71 189.56,123.07 189.95,122.44 190.35,121.81 190.75,121.19 191.14,120.58 191.54,119.97 191.94,119.36 192.33,118.75 192.73,118.15 193.13,117.55 193.52,116.95 193.92,116.35 194.31,115.75 194.71,115.15 195.11,114.56 195.5,113.95 195.9,113.35 196.3,112.74 196.69,112.13 197.09,111.52 197.49,110.9 197.88,110.27 198.28,109.63 198.68,108.99 199.07,108.34 199.47,107.69 199.87,107.03 200.26,106.36 200.66,105.68 201.05,105.01 201.45,104.33 201.85,103.65 202.24,102.97 202.64,102.3 203.04,101.63 203.43,100.97 203.83,100.31 204.23,99.66 204.62,99.03 205.02,98.4 205.42,97.79 205.81,97.19 206.21,96.61 206.61,96.04 207,95.48 207.4,94.94 207.79,94.41 208.19,93.9 208.59,93.39 208.98,92.9 209.38,92.43 209.78,91.96 210.17,91.5 210.57,91.05 210.97,90.61 211.36,90.18 211.76,89.75 212.16,89.33 212.55,88.91 212.95,88.5 213.35,88.08 213.74,87.67 214.14,87.27 214.53,86.86 214.93,86.45 215.33,86.04 215.72,85.63 216.12,85.22 216.52,84.8 216.91,84.39 217.31,83.97 217.71,83.55 218.1,83.13 218.5,82.7 218.9,82.27 219.29,81.85 219.69,81.42 220.09,80.98 220.48,80.55 220.88,80.12 221.27,79.7 221.67,79.27 222.07,78.85 222.46,78.43 222.86,78.02 223.26,77.62 223.65,77.23 224.05,76.84 224.45,76.47 224.84,76.11 225.24,75.76 225.64,75.42 226.03,75.1 226.43,74.78 226.83,74.48 227.22,74.19 227.62,73.91 228.01,73.64 228.41,73.37 228.81,73.11 229.2,72.85 229.6,72.6 230,72.34 230.39,72.09 230.79,71.83 231.19,71.57 231.58,71.31 231.98,71.05 232.38,70.77 232.77,70.5 233.17,70.22 233.57,69.94 233.96,69.65 234.36,69.36 234.75,69.07 235.15,68.78 235.55,68.49 235.94,68.21 236.34,67.92 236.74,67.64 237.13,67.36 237.53,67.08 237.93,66.81 238.32,66.54 238.72,66.28 239.12,66.01 239.51,65.75 239.91,65.49 240.31,65.23 240.7,64.97 241.1,64.71 241.49,64.44 241.89,64.17 242.29,63.89 242.68,63.6 243.08,63.31 243.48,63 243.87,62.69 244.27,62.37 244.67,62.05 245.06,61.71 245.46,61.36 245.86,61.01 246.25,60.65 246.65,60.29 247.05,59.92 247.44,59.55 247.84,59.19 248.23,58.82 248.63,58.46 249.03,58.11 249.42,57.77 249.82,57.44 250.22,57.12 250.61,56.81 251.01,56.53 251.41,56.25 251.8,56 252.2,55.76 252.6,55.54 252.99,55.34 253.39,55.16 253.79,54.99 254.18,54.85 254.58,54.71 254.97,54.6 255.37,54.5 255.77,54.41 256.16,54.33 256.56,54.27 256.96,54.21 257.35,54.16 257.75,54.12 258.15,54.09 258.54,54.06 258.94,54.04 259.34,54.02 259.73,54.01 260.13,54 260.53,53.99 260.92,53.98 261.32,53.97 261.71,53.97" stroke-dasharray="none" stroke="rgb(31,120,180)" stroke-width="0.75" opacity="1" stroke-opacity="1" fill="none"/>
          </g>
          <g id="Fig:densplot_01.xyplot.lines.group.2.panel.1.1.1">
            <polyline id="Fig:densplot_01.xyplot.lines.group.2.panel.1.1.1.1" points="59.05,54 59.45,54.02 59.85,54.04 60.24,54.06 60.64,54.09 61.04,54.13 61.43,54.18 61.83,54.25 62.23,54.33 62.63,54.42 63.02,54.54 63.42,54.68 63.82,54.85 64.21,55.05 64.61,55.29 65.01,55.58 65.4,55.9 65.8,56.28 66.2,56.72 66.59,57.22 66.99,57.79 67.39,58.42 67.78,59.13 68.18,59.92 68.58,60.78 68.97,61.74 69.37,62.77 69.77,63.89 70.16,65.09 70.56,66.36 70.96,67.7 71.35,69.12 71.75,70.6 72.15,72.14 72.54,73.73 72.94,75.36 73.34,77.02 73.73,78.71 74.13,80.42 74.53,82.13 74.92,83.84 75.32,85.54 75.72,87.22 76.12,88.88 76.51,90.5 76.91,92.08 77.31,93.61 77.7,95.08 78.1,96.51 78.5,97.88 78.89,99.18 79.29,100.41 79.69,101.57 80.08,102.66 80.48,103.68 80.88,104.63 81.27,105.51 81.67,106.32 82.07,107.05 82.46,107.71 82.86,108.31 83.26,108.85 83.65,109.32 84.05,109.74 84.45,110.1 84.84,110.4 85.24,110.67 85.64,110.89 86.03,111.08 86.43,111.24 86.83,111.38 87.22,111.49 87.62,111.6 88.02,111.69 88.42,111.78 88.81,111.88 89.21,111.98 89.61,112.09 90,112.21 90.4,112.35 90.8,112.52 91.19,112.7 91.59,112.9 91.99,113.12 92.38,113.37 92.78,113.64 93.18,113.94 93.57,114.25 93.97,114.59 94.37,114.95 94.76,115.32 95.16,115.72 95.56,116.14 95.95,116.57 96.35,117.01 96.75,117.48 97.14,117.96 97.54,118.45 97.94,118.96 98.33,119.49 98.73,120.04 99.13,120.6 99.52,121.18 99.92,121.78 100.32,122.39 100.72,123.02 101.11,123.67 101.51,124.34 101.91,125.02 102.3,125.71 102.7,126.42 103.1,127.14 103.49,127.87 103.89,128.6 104.29,129.35 104.68,130.1 105.08,130.86 105.48,131.63 105.87,132.4 106.27,133.17 106.67,133.95 107.06,134.74 107.46,135.53 107.86,136.33 108.25,137.14 108.65,137.97 109.05,138.81 109.44,139.67 109.84,140.55 110.24,141.44 110.63,142.36 111.03,143.31 111.43,144.29 111.82,145.29 112.22,146.32 112.62,147.38 113.01,148.47 113.41,149.59 113.81,150.73 114.21,151.9 114.6,153.08 115,154.29 115.4,155.51 115.79,156.73 116.19,157.97 116.59,159.21 116.98,160.44 117.38,161.67 117.78,162.89 118.17,164.09 118.57,165.28 118.97,166.46 119.36,167.61 119.76,168.74 120.16,169.85 120.55,170.94 120.95,172.01 121.35,173.06 121.74,174.09 122.14,175.11 122.54,176.11 122.93,177.11 123.33,178.1 123.73,179.09 124.12,180.08 124.52,181.07 124.92,182.07 125.31,183.07 125.71,184.08 126.11,185.1 126.51,186.13 126.9,187.17 127.3,188.22 127.7,189.27 128.09,190.33 128.49,191.38 128.89,192.43 129.28,193.47 129.68,194.49 130.08,195.5 130.47,196.48 130.87,197.43 131.27,198.35 131.66,199.24 132.06,200.07 132.46,200.86 132.85,201.6 133.25,202.29 133.65,202.93 134.04,203.51 134.44,204.04 134.84,204.5 135.23,204.92 135.63,205.28 136.03,205.59 136.42,205.86 136.82,206.08 137.22,206.26 137.61,206.39 138.01,206.49 138.41,206.55 138.8,206.59 139.2,206.59 139.6,206.56 140,206.5 140.39,206.42 140.79,206.31 141.19,206.17 141.58,206.01 141.98,205.82 142.38,205.6 142.77,205.35 143.17,205.07 143.57,204.75 143.96,204.41 144.36,204.03 144.76,203.61 145.15,203.15 145.55,202.66 145.95,202.14 146.34,201.58 146.74,201 147.14,200.38 147.53,199.74 147.93,199.07 148.33,198.39 148.72,197.69 149.12,196.98 149.52,196.27 149.91,195.55 150.31,194.83 150.71,194.12 151.1,193.41 151.5,192.72 151.9,192.03 152.3,191.36 152.69,190.7 153.09,190.05 153.49,189.41 153.88,188.78 154.28,188.15 154.68,187.53 155.07,186.91 155.47,186.28 155.87,185.64 156.26,185 156.66,184.34 157.06,183.66 157.45,182.97 157.85,182.25 158.25,181.5 158.64,180.73 159.04,179.94 159.44,179.12 159.83,178.28 160.23,177.41 160.63,176.52 161.02,175.61 161.42,174.69 161.82,173.76 162.21,172.81 162.61,171.86 163.01,170.91 163.4,169.95 163.8,169 164.2,168.06 164.6,167.13 164.99,166.2 165.39,165.3 165.79,164.4 166.18,163.53 166.58,162.67 166.98,161.83 167.37,161.01 167.77,160.21 168.17,159.42 168.56,158.66 168.96,157.91 169.36,157.17 169.75,156.45 170.15,155.74 170.55,155.04 170.94,154.35 171.34,153.67 171.74,153 172.13,152.33 172.53,151.66 172.93,151 173.32,150.34 173.72,149.69 174.12,149.03 174.51,148.37 174.91,147.7 175.31,147.03 175.7,146.36 176.1,145.68 176.5,145 176.89,144.3 177.29,143.6 177.69,142.88 178.09,142.16 178.48,141.42 178.88,140.68 179.28,139.92 179.67,139.16 180.07,138.38 180.47,137.6 180.86,136.82 181.26,136.04 181.66,135.25 182.05,134.48 182.45,133.7 182.85,132.94 183.24,132.19 183.64,131.46 184.04,130.74 184.43,130.05 184.83,129.38 185.23,128.73 185.62,128.1 186.02,127.5 186.42,126.92 186.81,126.35 187.21,125.81 187.61,125.29 188,124.77 188.4,124.26 188.8,123.76 189.19,123.27 189.59,122.76 189.99,122.26 190.39,121.74 190.78,121.22 191.18,120.68 191.58,120.12 191.97,119.56 192.37,118.97 192.77,118.37 193.16,117.76 193.56,117.13 193.96,116.49 194.35,115.85 194.75,115.19 195.15,114.53 195.54,113.88 195.94,113.22 196.34,112.56 196.73,111.91 197.13,111.27 197.53,110.63 197.92,110.01 198.32,109.38 198.72,108.77 199.11,108.17 199.51,107.57 199.91,106.98 200.3,106.39 200.7,105.8 201.1,105.22 201.49,104.64 201.89,104.06 202.29,103.48 202.68,102.89 203.08,102.3 203.48,101.7 203.88,101.1 204.27,100.5 204.67,99.89 205.07,99.28 205.46,98.66 205.86,98.04 206.26,97.41 206.65,96.79 207.05,96.17 207.45,95.55 207.84,94.93 208.24,94.32 208.64,93.72 209.03,93.13 209.43,92.55 209.83,91.98 210.22,91.43 210.62,90.89 211.02,90.36 211.41,89.85 211.81,89.36 212.21,88.87 212.6,88.4 213,87.95 213.4,87.5 213.79,87.07 214.19,86.64 214.59,86.22 214.98,85.81 215.38,85.4 215.78,84.99 216.18,84.59 216.57,84.18 216.97,83.78 217.37,83.38 217.76,82.97 218.16,82.57 218.56,82.17 218.95,81.77 219.35,81.37 219.75,80.98 220.14,80.58 220.54,80.2 220.94,79.81 221.33,79.44 221.73,79.07 222.13,78.71 222.52,78.35 222.92,78.01 223.32,77.67 223.71,77.35 224.11,77.03 224.51,76.72 224.9,76.43 225.3,76.13 225.7,75.85 226.09,75.57 226.49,75.3 226.89,75.03 227.28,74.77 227.68,74.51 228.08,74.25 228.48,73.99 228.87,73.73 229.27,73.47 229.67,73.21 230.06,72.95 230.46,72.68 230.86,72.41 231.25,72.14 231.65,71.87 232.05,71.6 232.44,71.32 232.84,71.05 233.24,70.77 233.63,70.5 234.03,70.23 234.43,69.96 234.82,69.7 235.22,69.43 235.62,69.17 236.01,68.91 236.41,68.66 236.81,68.4 237.2,68.15 237.6,67.9 238,67.64 238.39,67.39 238.79,67.13 239.19,66.87 239.58,66.6 239.98,66.32 240.38,66.04 240.77,65.76 241.17,65.46 241.57,65.15 241.97,64.84 242.36,64.51 242.76,64.17 243.16,63.82 243.55,63.46 243.95,63.09 244.35,62.72 244.74,62.33 245.14,61.94 245.54,61.54 245.93,61.14 246.33,60.73 246.73,60.33 247.12,59.92 247.52,59.52 247.92,59.13 248.31,58.74 248.71,58.36 249.11,57.99 249.5,57.63 249.9,57.29 250.3,56.97 250.69,56.66 251.09,56.37 251.49,56.1 251.88,55.85 252.28,55.62 252.68,55.41 253.07,55.22 253.47,55.05 253.87,54.89 254.27,54.75 254.66,54.63 255.06,54.52 255.46,54.43 255.85,54.35 256.25,54.28 256.65,54.22 257.04,54.17 257.44,54.13 257.84,54.1 258.23,54.07 258.63,54.05 259.03,54.03 259.42,54.01 259.82,54 260.22,53.99 260.61,53.98 261.01,53.98 261.41,53.97 261.8,53.97" stroke-dasharray="none" stroke="rgb(31,120,180)" stroke-width="0.75" opacity="1" stroke-opacity="1" fill="none"/>
          </g>
          <g id="Fig:densplot_01.xyplot.lines.group.3.panel.1.1.1">
            <polyline id="Fig:densplot_01.xyplot.lines.group.3.panel.1.1.1.1" points="59.14,54 59.53,54.01 59.93,54.03 60.32,54.05 60.72,54.08 61.12,54.12 61.51,54.16 61.91,54.22 62.31,54.29 62.7,54.38 63.1,54.49 63.5,54.62 63.89,54.78 64.29,54.97 64.68,55.19 65.08,55.46 65.48,55.77 65.87,56.12 66.27,56.54 66.67,57.02 67.06,57.56 67.46,58.17 67.85,58.85 68.25,59.6 68.65,60.44 69.04,61.36 69.44,62.37 69.84,63.46 70.23,64.63 70.63,65.88 71.03,67.21 71.42,68.61 71.82,70.09 72.21,71.62 72.61,73.21 73.01,74.84 73.4,76.51 73.8,78.21 74.2,79.93 74.59,81.66 74.99,83.39 75.38,85.12 75.78,86.82 76.18,88.51 76.57,90.16 76.97,91.77 77.37,93.33 77.76,94.85 78.16,96.31 78.56,97.71 78.95,99.06 79.35,100.33 79.74,101.53 80.14,102.66 80.54,103.73 80.93,104.73 81.33,105.66 81.73,106.53 82.12,107.31 82.52,108.03 82.91,108.68 83.31,109.27 83.71,109.79 84.1,110.26 84.5,110.66 84.9,111 85.29,111.29 85.69,111.53 86.09,111.73 86.48,111.89 86.88,112.01 87.27,112.1 87.67,112.17 88.07,112.22 88.46,112.26 88.86,112.29 89.26,112.32 89.65,112.36 90.05,112.41 90.44,112.48 90.84,112.57 91.24,112.68 91.63,112.81 92.03,112.98 92.43,113.18 92.82,113.41 93.22,113.67 93.62,113.96 94.01,114.28 94.41,114.63 94.8,115 95.2,115.41 95.6,115.83 95.99,116.28 96.39,116.74 96.79,117.21 97.18,117.7 97.58,118.21 97.98,118.72 98.37,119.25 98.77,119.78 99.16,120.33 99.56,120.88 99.96,121.44 100.35,122.01 100.75,122.59 101.15,123.17 101.54,123.77 101.94,124.37 102.33,124.98 102.73,125.6 103.13,126.22 103.52,126.85 103.92,127.49 104.32,128.14 104.71,128.79 105.11,129.45 105.51,130.12 105.9,130.8 106.3,131.48 106.69,132.18 107.09,132.88 107.49,133.6 107.88,134.32 108.28,135.07 108.68,135.84 109.07,136.62 109.47,137.42 109.86,138.25 110.26,139.1 110.66,139.98 111.05,140.89 111.45,141.83 111.85,142.8 112.24,143.8 112.64,144.83 113.04,145.88 113.43,146.97 113.83,148.08 114.22,149.21 114.62,150.36 115.02,151.53 115.41,152.71 115.81,153.9 116.21,155.1 116.6,156.3 117,157.5 117.39,158.7 117.79,159.89 118.19,161.07 118.58,162.23 118.98,163.38 119.38,164.52 119.77,165.64 120.17,166.74 120.57,167.84 120.96,168.91 121.36,169.97 121.75,171.02 122.15,172.07 122.55,173.11 122.94,174.14 123.34,175.17 123.74,176.21 124.13,177.24 124.53,178.29 124.92,179.34 125.32,180.39 125.72,181.46 126.11,182.53 126.51,183.6 126.91,184.69 127.3,185.77 127.7,186.85 128.1,187.92 128.49,188.99 128.89,190.04 129.28,191.08 129.68,192.1 130.08,193.09 130.47,194.06 130.87,195.01 131.27,195.92 131.66,196.8 132.06,197.64 132.45,198.45 132.85,199.24 133.25,199.99 133.64,200.71 134.04,201.4 134.44,202.07 134.83,202.71 135.23,203.32 135.63,203.92 136.02,204.5 136.42,205.05 136.81,205.59 137.21,206.1 137.61,206.59 138,207.06 138.4,207.5 138.8,207.92 139.19,208.31 139.59,208.66 139.98,208.96 140.38,209.23 140.78,209.45 141.17,209.63 141.57,209.76 141.97,209.84 142.36,209.85 142.76,209.81 143.16,209.72 143.55,209.56 143.95,209.36 144.34,209.1 144.74,208.78 145.14,208.41 145.53,207.99 145.93,207.53 146.33,207.02 146.72,206.48 147.12,205.9 147.51,205.28 147.91,204.64 148.31,203.96 148.7,203.27 149.1,202.55 149.5,201.82 149.89,201.07 150.29,200.3 150.69,199.52 151.08,198.73 151.48,197.93 151.87,197.12 152.27,196.3 152.67,195.48 153.06,194.64 153.46,193.8 153.86,192.96 154.25,192.11 154.65,191.25 155.04,190.39 155.44,189.53 155.84,188.65 156.23,187.78 156.63,186.9 157.03,186.01 157.42,185.12 157.82,184.22 158.22,183.31 158.61,182.4 159.01,181.48 159.4,180.55 159.8,179.61 160.2,178.67 160.59,177.72 160.99,176.77 161.39,175.8 161.78,174.84 162.18,173.87 162.58,172.91 162.97,171.94 163.37,170.98 163.76,170.02 164.16,169.08 164.56,168.14 164.95,167.21 165.35,166.3 165.75,165.4 166.14,164.52 166.54,163.65 166.93,162.79 167.33,161.95 167.73,161.12 168.12,160.3 168.52,159.49 168.92,158.69 169.31,157.88 169.71,157.08 170.11,156.28 170.5,155.48 170.9,154.67 171.29,153.86 171.69,153.05 172.09,152.23 172.48,151.4 172.88,150.58 173.28,149.76 173.67,148.94 174.07,148.13 174.46,147.32 174.86,146.53 175.26,145.75 175.65,144.98 176.05,144.23 176.45,143.5 176.84,142.79 177.24,142.1 177.64,141.43 178.03,140.78 178.43,140.14 178.82,139.51 179.22,138.9 179.62,138.3 180.01,137.7 180.41,137.1 180.81,136.51 181.2,135.91 181.6,135.3 181.99,134.69 182.39,134.06 182.79,133.43 183.18,132.78 183.58,132.12 183.98,131.45 184.37,130.77 184.77,130.08 185.17,129.38 185.56,128.67 185.96,127.96 186.35,127.25 186.75,126.54 187.15,125.83 187.54,125.13 187.94,124.44 188.34,123.76 188.73,123.1 189.13,122.44 189.52,121.81 189.92,121.19 190.32,120.59 190.71,120.01 191.11,119.44 191.51,118.89 191.9,118.36 192.3,117.84 192.7,117.34 193.09,116.84 193.49,116.36 193.88,115.88 194.28,115.41 194.68,114.95 195.07,114.48 195.47,114.01 195.87,113.54 196.26,113.07 196.66,112.59 197.05,112.1 197.45,111.59 197.85,111.08 198.24,110.55 198.64,110.02 199.04,109.47 199.43,108.9 199.83,108.33 200.23,107.74 200.62,107.13 201.02,106.52 201.41,105.9 201.81,105.27 202.21,104.63 202.6,103.98 203,103.33 203.4,102.67 203.79,102.01 204.19,101.35 204.58,100.69 204.98,100.03 205.38,99.37 205.77,98.72 206.17,98.07 206.57,97.42 206.96,96.78 207.36,96.15 207.76,95.52 208.15,94.9 208.55,94.29 208.94,93.7 209.34,93.11 209.74,92.53 210.13,91.96 210.53,91.4 210.93,90.86 211.32,90.32 211.72,89.8 212.11,89.29 212.51,88.79 212.91,88.29 213.3,87.81 213.7,87.33 214.1,86.87 214.49,86.41 214.89,85.95 215.29,85.5 215.68,85.06 216.08,84.62 216.47,84.19 216.87,83.76 217.27,83.34 217.66,82.92 218.06,82.5 218.46,82.1 218.85,81.69 219.25,81.3 219.64,80.91 220.04,80.53 220.44,80.15 220.83,79.78 221.23,79.42 221.63,79.06 222.02,78.72 222.42,78.38 222.82,78.04 223.21,77.72 223.61,77.4 224,77.09 224.4,76.78 224.8,76.48 225.19,76.19 225.59,75.9 225.99,75.61 226.38,75.33 226.78,75.05 227.17,74.78 227.57,74.51 227.97,74.24 228.36,73.97 228.76,73.7 229.16,73.44 229.55,73.17 229.95,72.91 230.35,72.64 230.74,72.38 231.14,72.11 231.53,71.84 231.93,71.58 232.33,71.31 232.72,71.03 233.12,70.76 233.52,70.49 233.91,70.22 234.31,69.94 234.71,69.67 235.1,69.4 235.5,69.12 235.89,68.85 236.29,68.58 236.69,68.31 237.08,68.04 237.48,67.77 237.88,67.5 238.27,67.23 238.67,66.96 239.06,66.69 239.46,66.41 239.86,66.14 240.25,65.87 240.65,65.59 241.05,65.3 241.44,65.02 241.84,64.72 242.24,64.42 242.63,64.11 243.03,63.8 243.42,63.48 243.82,63.15 244.22,62.81 244.61,62.46 245.01,62.1 245.41,61.74 245.8,61.37 246.2,61 246.59,60.62 246.99,60.24 247.39,59.85 247.78,59.47 248.18,59.09 248.58,58.72 248.97,58.35 249.37,57.99 249.77,57.64 250.16,57.31 250.56,56.99 250.95,56.69 251.35,56.4 251.75,56.13 252.14,55.88 252.54,55.64 252.94,55.43 253.33,55.24 253.73,55.06 254.12,54.91 254.52,54.77 254.92,54.64 255.31,54.53 255.71,54.44 256.11,54.36 256.5,54.29 256.9,54.23 257.3,54.18 257.69,54.13 258.09,54.1 258.48,54.07 258.88,54.05 259.28,54.03 259.67,54.01 260.07,54 260.47,53.99 260.86,53.98 261.26,53.97 261.65,53.97" stroke-dasharray="none" stroke="rgb(31,120,180)" stroke-width="0.75" opacity="1" stroke-opacity="1" fill="none"/>
          </g>
          <g id="Fig:densplot_01.xyplot.lines.group.4.panel.1.1.1">
            <polyline id="Fig:densplot_01.xyplot.lines.group.4.panel.1.1.1.1" points="59.1,53.99 59.5,54 59.89,54.02 60.29,54.04 60.69,54.07 61.08,54.1 61.48,54.14 61.88,54.2 62.27,54.26 62.67,54.34 63.07,54.44 63.46,54.56 63.86,54.7 64.26,54.88 64.65,55.08 65.05,55.32 65.45,55.6 65.84,55.93 66.24,56.31 66.64,56.75 67.03,57.25 67.43,57.81 67.83,58.44 68.22,59.14 68.62,59.91 69.02,60.77 69.41,61.72 69.81,62.74 70.21,63.83 70.6,65.01 71,66.26 71.4,67.58 71.79,68.98 72.19,70.45 72.59,71.96 72.98,73.53 73.38,75.14 73.78,76.78 74.17,78.45 74.57,80.14 74.97,81.83 75.36,83.53 75.76,85.21 76.16,86.88 76.55,88.53 76.95,90.14 77.35,91.71 77.74,93.24 78.14,94.71 78.54,96.14 78.93,97.5 79.33,98.8 79.73,100.03 80.12,101.19 80.52,102.29 80.92,103.31 81.31,104.27 81.71,105.16 82.11,105.96 82.5,106.69 82.9,107.36 83.3,107.96 83.69,108.5 84.09,108.98 84.49,109.4 84.88,109.76 85.28,110.07 85.68,110.34 86.07,110.57 86.47,110.76 86.87,110.93 87.26,111.07 87.66,111.2 88.06,111.32 88.45,111.43 88.85,111.54 89.25,111.65 89.64,111.77 90.04,111.91 90.44,112.06 90.83,112.23 91.23,112.43 91.63,112.64 92.02,112.88 92.42,113.14 92.82,113.43 93.21,113.75 93.61,114.09 94.01,114.45 94.4,114.83 94.8,115.23 95.2,115.65 95.59,116.09 95.99,116.55 96.39,117.02 96.78,117.5 97.18,117.99 97.58,118.5 97.97,119.02 98.37,119.55 98.77,120.08 99.16,120.63 99.56,121.18 99.96,121.74 100.35,122.32 100.75,122.9 101.15,123.48 101.54,124.08 101.94,124.69 102.34,125.3 102.73,125.92 103.13,126.56 103.53,127.2 103.92,127.85 104.32,128.51 104.72,129.19 105.11,129.87 105.51,130.56 105.91,131.27 106.3,131.99 106.7,132.73 107.1,133.48 107.49,134.24 107.89,135.01 108.29,135.81 108.68,136.62 109.08,137.44 109.48,138.28 109.87,139.14 110.27,140.02 110.67,140.92 111.06,141.83 111.46,142.77 111.86,143.73 112.25,144.7 112.65,145.69 113.05,146.7 113.44,147.72 113.84,148.77 114.24,149.83 114.63,150.9 115.03,151.98 115.43,153.08 115.82,154.18 116.22,155.29 116.62,156.41 117.01,157.53 117.41,158.65 117.81,159.77 118.2,160.89 118.6,162 119,163.11 119.39,164.21 119.79,165.31 120.19,166.4 120.58,167.48 120.98,168.56 121.38,169.63 121.77,170.69 122.17,171.75 122.57,172.81 122.96,173.86 123.36,174.91 123.76,175.97 124.15,177.03 124.55,178.09 124.95,179.15 125.34,180.22 125.74,181.29 126.14,182.36 126.53,183.44 126.93,184.52 127.33,185.6 127.72,186.68 128.12,187.75 128.52,188.81 128.91,189.86 129.31,190.9 129.71,191.91 130.1,192.91 130.5,193.88 130.9,194.82 131.29,195.73 131.69,196.61 132.09,197.45 132.48,198.26 132.88,199.03 133.28,199.76 133.67,200.46 134.07,201.13 134.47,201.75 134.86,202.34 135.26,202.89 135.66,203.42 136.05,203.91 136.45,204.37 136.85,204.81 137.24,205.21 137.64,205.59 138.04,205.93 138.43,206.26 138.83,206.55 139.23,206.81 139.62,207.05 140.02,207.24 140.42,207.41 140.81,207.54 141.21,207.64 141.61,207.7 142,207.72 142.4,207.7 142.8,207.63 143.19,207.53 143.59,207.38 143.99,207.19 144.38,206.97 144.78,206.7 145.18,206.39 145.57,206.03 145.97,205.64 146.37,205.22 146.76,204.76 147.16,204.26 147.56,203.73 147.95,203.17 148.35,202.58 148.75,201.96 149.14,201.31 149.54,200.64 149.94,199.95 150.33,199.23 150.73,198.49 151.13,197.74 151.52,196.97 151.92,196.18 152.32,195.38 152.71,194.57 153.11,193.75 153.51,192.92 153.9,192.09 154.3,191.25 154.7,190.4 155.09,189.55 155.49,188.7 155.89,187.83 156.28,186.97 156.68,186.09 157.08,185.21 157.47,184.31 157.87,183.41 158.27,182.48 158.66,181.54 159.06,180.58 159.46,179.61 159.85,178.61 160.25,177.59 160.65,176.56 161.04,175.5 161.44,174.43 161.84,173.35 162.23,172.25 162.63,171.15 163.03,170.05 163.42,168.96 163.82,167.87 164.22,166.8 164.61,165.75 165.01,164.73 165.41,163.74 165.8,162.78 166.2,161.87 166.6,161.01 166.99,160.18 167.39,159.41 167.79,158.67 168.18,157.98 168.58,157.34 168.98,156.74 169.37,156.18 169.77,155.64 170.17,155.14 170.56,154.65 170.96,154.18 171.36,153.73 171.75,153.27 172.15,152.82 172.55,152.36 172.94,151.89 173.34,151.41 173.74,150.91 174.13,150.39 174.53,149.85 174.93,149.29 175.32,148.71 175.72,148.11 176.12,147.49 176.51,146.85 176.91,146.2 177.31,145.53 177.7,144.86 178.1,144.17 178.5,143.48 178.89,142.78 179.29,142.07 179.69,141.37 180.08,140.66 180.48,139.96 180.88,139.25 181.27,138.54 181.67,137.84 182.07,137.13 182.46,136.42 182.86,135.7 183.26,134.99 183.65,134.27 184.05,133.54 184.45,132.81 184.84,132.07 185.24,131.32 185.64,130.57 186.03,129.82 186.43,129.06 186.83,128.29 187.22,127.52 187.62,126.76 188.02,125.99 188.41,125.23 188.81,124.47 189.21,123.71 189.6,122.97 190,122.23 190.4,121.51 190.79,120.8 191.19,120.11 191.59,119.43 191.98,118.77 192.38,118.12 192.78,117.49 193.17,116.88 193.57,116.28 193.97,115.69 194.36,115.12 194.76,114.56 195.16,114.02 195.55,113.48 195.95,112.95 196.35,112.44 196.74,111.93 197.14,111.42 197.54,110.93 197.93,110.43 198.33,109.95 198.73,109.46 199.12,108.98 199.52,108.49 199.92,108.01 200.31,107.53 200.71,107.04 201.11,106.56 201.5,106.06 201.9,105.57 202.3,105.06 202.69,104.55 203.09,104.03 203.49,103.5 203.88,102.96 204.28,102.4 204.68,101.84 205.07,101.27 205.47,100.68 205.87,100.08 206.26,99.46 206.66,98.84 207.06,98.21 207.45,97.58 207.85,96.93 208.25,96.28 208.64,95.63 209.04,94.98 209.44,94.32 209.83,93.67 210.23,93.03 210.63,92.39 211.02,91.75 211.42,91.13 211.82,90.52 212.21,89.92 212.61,89.33 213.01,88.75 213.4,88.19 213.8,87.65 214.2,87.12 214.59,86.6 214.99,86.11 215.39,85.62 215.78,85.16 216.18,84.71 216.58,84.28 216.97,83.86 217.37,83.45 217.77,83.06 218.16,82.69 218.56,82.32 218.96,81.97 219.35,81.63 219.75,81.3 220.15,80.98 220.54,80.66 220.94,80.35 221.34,80.05 221.73,79.75 222.13,79.45 222.53,79.15 222.92,78.86 223.32,78.57 223.72,78.27 224.11,77.98 224.51,77.68 224.91,77.38 225.3,77.08 225.7,76.77 226.1,76.47 226.49,76.16 226.89,75.85 227.29,75.53 227.68,75.22 228.08,74.9 228.48,74.58 228.87,74.26 229.27,73.94 229.67,73.62 230.06,73.31 230.46,72.99 230.86,72.68 231.25,72.37 231.65,72.07 232.05,71.77 232.44,71.47 232.84,71.18 233.24,70.9 233.63,70.62 234.03,70.35 234.43,70.08 234.82,69.82 235.22,69.56 235.62,69.31 236.01,69.06 236.41,68.81 236.81,68.57 237.2,68.32 237.6,68.08 238,67.83 238.39,67.59 238.79,67.34 239.19,67.08 239.58,66.82 239.98,66.55 240.38,66.27 240.77,65.98 241.17,65.69 241.57,65.38 241.96,65.07 242.36,64.74 242.76,64.4 243.15,64.05 243.55,63.69 243.95,63.32 244.34,62.94 244.74,62.55 245.14,62.15 245.53,61.74 245.93,61.34 246.33,60.93 246.72,60.51 247.12,60.1 247.52,59.7 247.91,59.29 248.31,58.9 248.71,58.51 249.1,58.14 249.5,57.77 249.9,57.42 250.29,57.09 250.69,56.78 251.09,56.48 251.48,56.21 251.88,55.95 252.28,55.71 252.67,55.49 253.07,55.29 253.47,55.11 253.86,54.95 254.26,54.81 254.66,54.68 255.05,54.57 255.45,54.47 255.85,54.38 256.24,54.31 256.64,54.25 257.04,54.19 257.43,54.15 257.83,54.11 258.23,54.08 258.62,54.06 259.02,54.03 259.42,54.02 259.81,54 260.21,53.99 260.61,53.98 261,53.98 261.4,53.97 261.8,53.97" stroke-dasharray="none" stroke="rgb(31,120,180)" stroke-width="0.75" opacity="1" stroke-opacity="1" fill="none"/>
          </g>
          <g id="Fig:densplot_01.xyplot.lines.group.5.panel.1.1.1">
            <polyline id="Fig:densplot_01.xyplot.lines.group.5.panel.1.1.1.1" points="60.2,53.99 60.59,54 60.98,54.02 61.37,54.04 61.76,54.07 62.16,54.1 62.55,54.15 62.94,54.2 63.33,54.27 63.73,54.36 64.12,54.47 64.51,54.61 64.9,54.77 65.3,54.97 65.69,55.2 66.08,55.48 66.47,55.8 66.87,56.18 67.26,56.62 67.65,57.12 68.04,57.7 68.44,58.34 68.83,59.05 69.22,59.85 69.61,60.74 70,61.71 70.4,62.76 70.79,63.89 71.18,65.11 71.57,66.39 71.97,67.75 72.36,69.19 72.75,70.68 73.14,72.23 73.54,73.83 73.93,75.46 74.32,77.12 74.71,78.8 75.11,80.5 75.5,82.19 75.89,83.88 76.28,85.56 76.68,87.21 77.07,88.84 77.46,90.43 77.85,91.97 78.24,93.47 78.64,94.91 79.03,96.29 79.42,97.61 79.81,98.87 80.21,100.06 80.6,101.18 80.99,102.22 81.38,103.2 81.78,104.1 82.17,104.94 82.56,105.7 82.95,106.4 83.35,107.02 83.74,107.58 84.13,108.07 84.52,108.5 84.92,108.88 85.31,109.21 85.7,109.49 86.09,109.72 86.48,109.9 86.88,110.05 87.27,110.16 87.66,110.25 88.05,110.32 88.45,110.37 88.84,110.41 89.23,110.43 89.62,110.46 90.02,110.48 90.41,110.51 90.8,110.55 91.19,110.61 91.59,110.68 91.98,110.77 92.37,110.88 92.76,111.01 93.16,111.17 93.55,111.35 93.94,111.55 94.33,111.78 94.72,112.04 95.12,112.32 95.51,112.62 95.9,112.94 96.29,113.28 96.69,113.64 97.08,114.02 97.47,114.42 97.86,114.84 98.26,115.28 98.65,115.74 99.04,116.22 99.43,116.72 99.83,117.25 100.22,117.8 100.61,118.37 101,118.96 101.4,119.58 101.79,120.22 102.18,120.89 102.57,121.58 102.96,122.29 103.36,123.03 103.75,123.78 104.14,124.55 104.53,125.34 104.93,126.14 105.32,126.95 105.71,127.77 106.1,128.59 106.5,129.42 106.89,130.25 107.28,131.07 107.67,131.9 108.07,132.73 108.46,133.55 108.85,134.38 109.24,135.2 109.64,136.03 110.03,136.86 110.42,137.69 110.81,138.54 111.2,139.39 111.6,140.25 111.99,141.13 112.38,142.03 112.77,142.94 113.17,143.88 113.56,144.84 113.95,145.82 114.34,146.83 114.74,147.86 115.13,148.92 115.52,150 115.91,151.1 116.31,152.23 116.7,153.38 117.09,154.54 117.48,155.73 117.88,156.92 118.27,158.13 118.66,159.35 119.05,160.58 119.44,161.81 119.84,163.04 120.23,164.27 120.62,165.5 121.01,166.73 121.41,167.96 121.8,169.18 122.19,170.41 122.58,171.63 122.98,172.86 123.37,174.09 123.76,175.32 124.15,176.57 124.55,177.82 124.94,179.09 125.33,180.36 125.72,181.65 126.12,182.96 126.51,184.27 126.9,185.6 127.29,186.93 127.68,188.27 128.08,189.62 128.47,190.96 128.86,192.3 129.25,193.63 129.65,194.95 130.04,196.26 130.43,197.54 130.82,198.81 131.22,200.05 131.61,201.27 132,202.46 132.39,203.63 132.79,204.77 133.18,205.88 133.57,206.96 133.96,208.01 134.36,209.04 134.75,210.03 135.14,211 135.53,211.94 135.92,212.83 136.32,213.7 136.71,214.53 137.1,215.33 137.49,216.09 137.89,216.82 138.28,217.5 138.67,218.14 139.06,218.74 139.46,219.29 139.85,219.8 140.24,220.26 140.63,220.68 141.03,221.06 141.42,221.37 141.81,221.64 142.2,221.86 142.6,222.02 142.99,222.14 143.38,222.21 143.77,222.22 144.16,222.18 144.56,222.08 144.95,221.94 145.34,221.74 145.73,221.5 146.13,221.21 146.52,220.87 146.91,220.48 147.3,220.05 147.7,219.57 148.09,219.06 148.48,218.51 148.87,217.93 149.27,217.32 149.66,216.67 150.05,215.99 150.44,215.29 150.84,214.57 151.23,213.82 151.62,213.05 152.01,212.26 152.4,211.45 152.8,210.62 153.19,209.77 153.58,208.9 153.97,208.01 154.37,207.11 154.76,206.19 155.15,205.24 155.54,204.27 155.94,203.29 156.33,202.28 156.72,201.25 157.11,200.2 157.51,199.13 157.9,198.04 158.29,196.92 158.68,195.78 159.08,194.63 159.47,193.46 159.86,192.26 160.25,191.05 160.64,189.83 161.04,188.58 161.43,187.32 161.82,186.04 162.21,184.75 162.61,183.44 163,182.11 163.39,180.76 163.78,179.4 164.18,178.01 164.57,176.61 164.96,175.2 165.35,173.76 165.75,172.32 166.14,170.86 166.53,169.39 166.92,167.91 167.32,166.43 167.71,164.95 168.1,163.48 168.49,162.02 168.88,160.56 169.28,159.13 169.67,157.72 170.06,156.33 170.45,154.97 170.85,153.63 171.24,152.32 171.63,151.05 172.02,149.81 172.42,148.6 172.81,147.42 173.2,146.27 173.59,145.16 173.99,144.08 174.38,143.03 174.77,142.02 175.16,141.04 175.56,140.1 175.95,139.18 176.34,138.31 176.73,137.46 177.12,136.66 177.52,135.89 177.91,135.16 178.3,134.47 178.69,133.81 179.09,133.18 179.48,132.58 179.87,132.01 180.26,131.47 180.66,130.96 181.05,130.46 181.44,129.98 181.83,129.51 182.23,129.06 182.62,128.61 183.01,128.16 183.4,127.71 183.8,127.26 184.19,126.8 184.58,126.33 184.97,125.85 185.36,125.36 185.76,124.84 186.15,124.31 186.54,123.76 186.93,123.19 187.33,122.59 187.72,121.97 188.11,121.33 188.5,120.67 188.9,119.97 189.29,119.26 189.68,118.52 190.07,117.76 190.47,116.99 190.86,116.19 191.25,115.38 191.64,114.55 192.04,113.71 192.43,112.86 192.82,112.01 193.21,111.16 193.6,110.31 194,109.47 194.39,108.63 194.78,107.81 195.17,107.01 195.57,106.22 195.96,105.45 196.35,104.71 196.74,103.99 197.14,103.3 197.53,102.64 197.92,102 198.31,101.39 198.71,100.8 199.1,100.23 199.49,99.69 199.88,99.17 200.28,98.67 200.67,98.18 201.06,97.7 201.45,97.23 201.84,96.78 202.24,96.33 202.63,95.88 203.02,95.44 203.41,95.01 203.81,94.58 204.2,94.16 204.59,93.74 204.98,93.34 205.38,92.94 205.77,92.56 206.16,92.19 206.55,91.83 206.95,91.48 207.34,91.15 207.73,90.83 208.12,90.53 208.52,90.24 208.91,89.95 209.3,89.67 209.69,89.4 210.08,89.12 210.48,88.84 210.87,88.55 211.26,88.25 211.65,87.93 212.05,87.59 212.44,87.23 212.83,86.85 213.22,86.45 213.62,86.02 214.01,85.57 214.4,85.1 214.79,84.61 215.19,84.11 215.58,83.59 215.97,83.07 216.36,82.55 216.76,82.04 217.15,81.52 217.54,81.02 217.93,80.53 218.32,80.05 218.72,79.6 219.11,79.16 219.5,78.73 219.89,78.33 220.29,77.94 220.68,77.57 221.07,77.21 221.46,76.86 221.86,76.52 222.25,76.19 222.64,75.87 223.03,75.54 223.43,75.23 223.82,74.91 224.21,74.6 224.6,74.29 225,73.98 225.39,73.68 225.78,73.38 226.17,73.09 226.56,72.8 226.96,72.52 227.35,72.24 227.74,71.98 228.13,71.72 228.53,71.47 228.92,71.23 229.31,70.99 229.7,70.77 230.1,70.55 230.49,70.33 230.88,70.12 231.27,69.92 231.67,69.71 232.06,69.51 232.45,69.31 232.84,69.11 233.24,68.91 233.63,68.71 234.02,68.51 234.41,68.31 234.81,68.11 235.2,67.9 235.59,67.7 235.98,67.49 236.37,67.29 236.77,67.08 237.16,66.87 237.55,66.66 237.94,66.45 238.34,66.24 238.73,66.02 239.12,65.81 239.51,65.59 239.91,65.36 240.3,65.13 240.69,64.89 241.08,64.64 241.48,64.39 241.87,64.12 242.26,63.85 242.65,63.56 243.05,63.27 243.44,62.96 243.83,62.64 244.22,62.3 244.61,61.96 245.01,61.6 245.4,61.24 245.79,60.87 246.18,60.48 246.58,60.1 246.97,59.71 247.36,59.32 247.75,58.94 248.15,58.55 248.54,58.18 248.93,57.81 249.32,57.46 249.72,57.12 250.11,56.8 250.5,56.49 250.89,56.2 251.29,55.93 251.68,55.69 252.07,55.46 252.46,55.26 252.85,55.07 253.25,54.9 253.64,54.76 254.03,54.63 254.42,54.51 254.82,54.42 255.21,54.34 255.6,54.27 255.99,54.21 256.39,54.16 256.78,54.11 257.17,54.08 257.56,54.05 257.96,54.03 258.35,54.01 258.74,54 259.13,53.99 259.53,53.98 259.92,53.97 260.31,53.97 260.7,53.97" stroke-dasharray="none" stroke="rgb(31,120,180)" stroke-width="0.75" opacity="1" stroke-opacity="1" fill="none"/>
          </g>
          <g id="Fig:densplot_01.xyplot.lines.group.6.panel.1.1.1">
            <polyline id="Fig:densplot_01.xyplot.lines.group.6.panel.1.1.1.1" points="59.38,54 59.77,54.01 60.17,54.03 60.56,54.05 60.96,54.08 61.35,54.12 61.75,54.17 62.14,54.23 62.54,54.3 62.93,54.4 63.33,54.51 63.72,54.65 64.12,54.81 64.51,55 64.91,55.24 65.31,55.52 65.7,55.85 66.1,56.23 66.49,56.66 66.89,57.15 67.28,57.71 67.68,58.35 68.07,59.06 68.47,59.85 68.86,60.72 69.26,61.67 69.65,62.69 70.05,63.81 70.44,65.01 70.84,66.29 71.23,67.63 71.63,69.04 72.03,70.52 72.42,72.04 72.82,73.62 73.21,75.24 73.61,76.89 74,78.56 74.4,80.23 74.79,81.91 75.19,83.59 75.58,85.25 75.98,86.89 76.37,88.5 76.77,90.07 77.16,91.6 77.56,93.09 77.96,94.53 78.35,95.91 78.75,97.23 79.14,98.49 79.54,99.69 79.93,100.84 80.33,101.92 80.72,102.93 81.12,103.88 81.51,104.76 81.91,105.59 82.3,106.35 82.7,107.05 83.09,107.68 83.49,108.25 83.88,108.76 84.28,109.21 84.68,109.6 85.07,109.95 85.47,110.23 85.86,110.48 86.26,110.66 86.65,110.81 87.05,110.92 87.44,111 87.84,111.06 88.23,111.09 88.63,111.11 89.02,111.11 89.42,111.12 89.81,111.13 90.21,111.15 90.6,111.18 91,111.23 91.4,111.3 91.79,111.41 92.19,111.54 92.58,111.7 92.98,111.89 93.37,112.12 93.77,112.38 94.16,112.67 94.56,112.99 94.95,113.34 95.35,113.72 95.74,114.12 96.14,114.55 96.53,114.99 96.93,115.45 97.32,115.94 97.72,116.43 98.12,116.94 98.51,117.47 98.91,118.01 99.3,118.56 99.7,119.13 100.09,119.71 100.49,120.3 100.88,120.91 101.28,121.54 101.67,122.18 102.07,122.83 102.46,123.5 102.86,124.19 103.25,124.89 103.65,125.6 104.04,126.33 104.44,127.07 104.84,127.82 105.23,128.58 105.63,129.36 106.02,130.14 106.42,130.93 106.81,131.74 107.21,132.55 107.6,133.37 108,134.21 108.39,135.05 108.79,135.9 109.18,136.77 109.58,137.64 109.97,138.53 110.37,139.43 110.76,140.34 111.16,141.27 111.56,142.21 111.95,143.16 112.35,144.13 112.74,145.11 113.14,146.1 113.53,147.11 113.93,148.13 114.32,149.16 114.72,150.2 115.11,151.25 115.51,152.32 115.9,153.39 116.3,154.47 116.69,155.56 117.09,156.66 117.48,157.76 117.88,158.87 118.28,159.98 118.67,161.09 119.07,162.2 119.46,163.31 119.86,164.42 120.25,165.53 120.65,166.63 121.04,167.72 121.44,168.8 121.83,169.87 122.23,170.94 122.62,171.99 123.02,173.04 123.41,174.07 123.81,175.09 124.21,176.11 124.6,177.12 125,178.12 125.39,179.13 125.79,180.13 126.18,181.14 126.58,182.16 126.97,183.18 127.37,184.22 127.76,185.28 128.16,186.35 128.55,187.45 128.95,188.57 129.34,189.71 129.74,190.88 130.13,192.07 130.53,193.28 130.93,194.51 131.32,195.75 131.72,197.01 132.11,198.27 132.51,199.54 132.9,200.8 133.3,202.05 133.69,203.28 134.09,204.48 134.48,205.65 134.88,206.78 135.27,207.87 135.67,208.9 136.06,209.88 136.46,210.79 136.85,211.63 137.25,212.39 137.65,213.09 138.04,213.71 138.44,214.26 138.83,214.73 139.23,215.13 139.62,215.46 140.02,215.71 140.41,215.91 140.81,216.04 141.2,216.13 141.6,216.16 141.99,216.14 142.39,216.08 142.78,215.98 143.18,215.85 143.57,215.69 143.97,215.5 144.37,215.29 144.76,215.06 145.16,214.8 145.55,214.52 145.95,214.23 146.34,213.91 146.74,213.57 147.13,213.2 147.53,212.8 147.92,212.38 148.32,211.92 148.71,211.43 149.11,210.9 149.5,210.33 149.9,209.72 150.29,209.06 150.69,208.34 151.09,207.59 151.48,206.78 151.88,205.92 152.27,205.02 152.67,204.06 153.06,203.05 153.46,202 153.85,200.91 154.25,199.78 154.64,198.62 155.04,197.44 155.43,196.22 155.83,194.99 156.22,193.74 156.62,192.48 157.01,191.21 157.41,189.94 157.81,188.67 158.2,187.4 158.6,186.14 158.99,184.88 159.39,183.62 159.78,182.36 160.18,181.11 160.57,179.86 160.97,178.62 161.36,177.37 161.76,176.12 162.15,174.87 162.55,173.61 162.94,172.35 163.34,171.09 163.74,169.83 164.13,168.57 164.53,167.31 164.92,166.06 165.32,164.82 165.71,163.59 166.11,162.37 166.5,161.18 166.9,160.01 167.29,158.87 167.69,157.76 168.08,156.68 168.48,155.63 168.87,154.63 169.27,153.66 169.66,152.73 170.06,151.83 170.46,150.97 170.85,150.13 171.25,149.33 171.64,148.55 172.04,147.8 172.43,147.07 172.83,146.35 173.22,145.65 173.62,144.97 174.01,144.29 174.41,143.63 174.8,142.97 175.2,142.33 175.59,141.68 175.99,141.05 176.38,140.43 176.78,139.81 177.18,139.2 177.57,138.61 177.97,138.02 178.36,137.44 178.76,136.87 179.15,136.31 179.55,135.76 179.94,135.22 180.34,134.69 180.73,134.16 181.13,133.63 181.52,133.1 181.92,132.58 182.31,132.05 182.71,131.52 183.1,130.98 183.5,130.44 183.9,129.89 184.29,129.33 184.69,128.76 185.08,128.18 185.48,127.6 185.87,127.01 186.27,126.41 186.66,125.8 187.06,125.2 187.45,124.59 187.85,123.98 188.24,123.38 188.64,122.78 189.03,122.18 189.43,121.58 189.82,121 190.22,120.41 190.62,119.83 191.01,119.26 191.41,118.68 191.8,118.1 192.2,117.53 192.59,116.94 192.99,116.36 193.38,115.76 193.78,115.15 194.17,114.53 194.57,113.9 194.96,113.26 195.36,112.6 195.75,111.94 196.15,111.26 196.54,110.57 196.94,109.87 197.34,109.17 197.73,108.47 198.13,107.76 198.52,107.06 198.92,106.36 199.31,105.67 199.71,105 200.1,104.33 200.5,103.68 200.89,103.04 201.29,102.43 201.68,101.83 202.08,101.24 202.47,100.68 202.87,100.13 203.26,99.6 203.66,99.09 204.06,98.59 204.45,98.1 204.85,97.63 205.24,97.16 205.64,96.71 206.03,96.26 206.43,95.82 206.82,95.39 207.22,94.96 207.61,94.53 208.01,94.11 208.4,93.69 208.8,93.26 209.19,92.84 209.59,92.41 209.99,91.98 210.38,91.55 210.78,91.12 211.17,90.68 211.57,90.23 211.96,89.78 212.36,89.32 212.75,88.86 213.15,88.39 213.54,87.91 213.94,87.43 214.33,86.94 214.73,86.45 215.12,85.96 215.52,85.46 215.91,84.97 216.31,84.48 216.71,83.99 217.1,83.51 217.5,83.04 217.89,82.58 218.29,82.13 218.68,81.69 219.08,81.26 219.47,80.85 219.87,80.46 220.26,80.08 220.66,79.71 221.05,79.36 221.45,79.02 221.84,78.69 222.24,78.37 222.63,78.06 223.03,77.76 223.43,77.45 223.82,77.15 224.22,76.86 224.61,76.56 225.01,76.26 225.4,75.95 225.8,75.64 226.19,75.33 226.59,75.02 226.98,74.7 227.38,74.38 227.77,74.06 228.17,73.73 228.56,73.41 228.96,73.09 229.35,72.76 229.75,72.45 230.15,72.13 230.54,71.83 230.94,71.53 231.33,71.23 231.73,70.95 232.12,70.67 232.52,70.41 232.91,70.15 233.31,69.91 233.7,69.67 234.1,69.44 234.49,69.22 234.89,69.02 235.28,68.82 235.68,68.63 236.07,68.44 236.47,68.26 236.87,68.09 237.26,67.92 237.66,67.75 238.05,67.58 238.45,67.41 238.84,67.24 239.24,67.06 239.63,66.87 240.03,66.68 240.42,66.47 240.82,66.25 241.21,66.01 241.61,65.76 242,65.49 242.4,65.2 242.79,64.89 243.19,64.56 243.59,64.21 243.98,63.84 244.38,63.46 244.77,63.06 245.17,62.64 245.56,62.21 245.96,61.77 246.35,61.32 246.75,60.87 247.14,60.42 247.54,59.97 247.93,59.52 248.33,59.08 248.72,58.66 249.12,58.24 249.51,57.85 249.91,57.47 250.31,57.11 250.7,56.77 251.1,56.45 251.49,56.16 251.89,55.89 252.28,55.64 252.68,55.42 253.07,55.22 253.47,55.03 253.86,54.87 254.26,54.73 254.65,54.61 255.05,54.5 255.44,54.41 255.84,54.33 256.24,54.26 256.63,54.2 257.03,54.16 257.42,54.12 257.82,54.08 258.21,54.06 258.61,54.03 259,54.02 259.4,54 259.79,53.99 260.19,53.98 260.58,53.98 260.98,53.97 261.37,53.97" stroke-dasharray="none" stroke="rgb(31,120,180)" stroke-width="0.75" opacity="1" stroke-opacity="1" fill="none"/>
          </g>
          <g id="Fig:densplot_01.xyplot.lines.group.7.panel.1.1.1">
            <polyline id="Fig:densplot_01.xyplot.lines.group.7.panel.1.1.1.1" points="59,53.99 59.4,54.01 59.79,54.03 60.19,54.05 60.59,54.07 60.98,54.11 61.38,54.16 61.78,54.21 62.17,54.28 62.57,54.37 62.97,54.47 63.36,54.6 63.76,54.75 64.16,54.93 64.55,55.15 64.95,55.4 65.35,55.7 65.75,56.04 66.14,56.44 66.54,56.9 66.94,57.42 67.33,58.01 67.73,58.66 68.13,59.39 68.52,60.19 68.92,61.08 69.32,62.05 69.71,63.11 70.11,64.24 70.51,65.45 70.9,66.73 71.3,68.09 71.7,69.52 72.09,71.02 72.49,72.57 72.89,74.16 73.28,75.8 73.68,77.48 74.08,79.18 74.47,80.89 74.87,82.62 75.27,84.35 75.66,86.06 76.06,87.76 76.46,89.45 76.85,91.09 77.25,92.7 77.65,94.27 78.05,95.78 78.44,97.25 78.84,98.66 79.24,100.02 79.63,101.29 80.03,102.51 80.43,103.65 80.82,104.73 81.22,105.74 81.62,106.68 82.01,107.55 82.41,108.33 82.81,109.05 83.2,109.7 83.6,110.28 84,110.8 84.39,111.25 84.79,111.64 85.19,111.96 85.58,112.24 85.98,112.46 86.38,112.64 86.77,112.78 87.17,112.88 87.57,112.95 87.96,113 88.36,113.03 88.76,113.05 89.15,113.06 89.55,113.07 89.95,113.09 90.34,113.13 90.74,113.18 91.14,113.25 91.54,113.35 91.93,113.48 92.33,113.64 92.73,113.85 93.12,114.09 93.52,114.37 93.92,114.68 94.31,115.03 94.71,115.42 95.11,115.84 95.5,116.3 95.9,116.78 96.3,117.28 96.69,117.81 97.09,118.35 97.49,118.91 97.88,119.48 98.28,120.06 98.68,120.65 99.07,121.24 99.47,121.83 99.87,122.43 100.26,123.02 100.66,123.62 101.06,124.21 101.45,124.81 101.85,125.4 102.25,126 102.64,126.61 103.04,127.22 103.44,127.84 103.83,128.47 104.23,129.11 104.63,129.77 105.03,130.44 105.42,131.13 105.82,131.85 106.22,132.58 106.61,133.34 107.01,134.13 107.41,134.94 107.8,135.77 108.2,136.64 108.6,137.53 108.99,138.45 109.39,139.39 109.79,140.35 110.18,141.34 110.58,142.36 110.98,143.4 111.37,144.46 111.77,145.54 112.17,146.63 112.56,147.75 112.96,148.88 113.36,150.03 113.75,151.19 114.15,152.37 114.55,153.56 114.94,154.77 115.34,155.98 115.74,157.21 116.13,158.45 116.53,159.7 116.93,160.95 117.33,162.21 117.72,163.48 118.12,164.74 118.52,166.01 118.91,167.27 119.31,168.53 119.71,169.77 120.1,171.01 120.5,172.23 120.9,173.44 121.29,174.62 121.69,175.79 122.09,176.93 122.48,178.05 122.88,179.15 123.28,180.22 123.67,181.27 124.07,182.3 124.47,183.31 124.86,184.31 125.26,185.28 125.66,186.25 126.05,187.21 126.45,188.16 126.85,189.1 127.24,190.04 127.64,190.97 128.04,191.9 128.43,192.83 128.83,193.76 129.23,194.68 129.62,195.59 130.02,196.5 130.42,197.39 130.82,198.27 131.21,199.13 131.61,199.96 132.01,200.77 132.4,201.54 132.8,202.29 133.2,202.99 133.59,203.66 133.99,204.29 134.39,204.88 134.78,205.41 135.18,205.91 135.58,206.36 135.97,206.76 136.37,207.12 136.77,207.44 137.16,207.71 137.56,207.95 137.96,208.14 138.35,208.3 138.75,208.43 139.15,208.53 139.54,208.59 139.94,208.63 140.34,208.64 140.73,208.63 141.13,208.6 141.53,208.55 141.92,208.48 142.32,208.39 142.72,208.28 143.12,208.15 143.51,208 143.91,207.84 144.31,207.65 144.7,207.44 145.1,207.2 145.5,206.94 145.89,206.65 146.29,206.34 146.69,205.99 147.08,205.61 147.48,205.19 147.88,204.74 148.27,204.25 148.67,203.72 149.07,203.15 149.46,202.54 149.86,201.89 150.26,201.2 150.65,200.46 151.05,199.69 151.45,198.88 151.84,198.02 152.24,197.13 152.64,196.21 153.03,195.24 153.43,194.23 153.83,193.2 154.22,192.13 154.62,191.03 155.02,189.9 155.41,188.75 155.81,187.56 156.21,186.36 156.61,185.13 157,183.89 157.4,182.63 157.8,181.36 158.19,180.08 158.59,178.79 158.99,177.5 159.38,176.2 159.78,174.91 160.18,173.62 160.57,172.34 160.97,171.07 161.37,169.81 161.76,168.57 162.16,167.35 162.56,166.15 162.95,164.97 163.35,163.83 163.75,162.71 164.14,161.61 164.54,160.55 164.94,159.51 165.33,158.5 165.73,157.53 166.13,156.58 166.52,155.66 166.92,154.77 167.32,153.91 167.71,153.07 168.11,152.25 168.51,151.46 168.91,150.69 169.3,149.93 169.7,149.2 170.1,148.48 170.49,147.78 170.89,147.1 171.29,146.43 171.68,145.77 172.08,145.13 172.48,144.5 172.87,143.88 173.27,143.28 173.67,142.69 174.06,142.1 174.46,141.53 174.86,140.96 175.25,140.41 175.65,139.86 176.05,139.31 176.44,138.78 176.84,138.25 177.24,137.73 177.63,137.21 178.03,136.7 178.43,136.19 178.82,135.69 179.22,135.2 179.62,134.71 180.01,134.23 180.41,133.76 180.81,133.3 181.2,132.84 181.6,132.39 182,131.95 182.4,131.51 182.79,131.08 183.19,130.66 183.59,130.24 183.98,129.82 184.38,129.41 184.78,128.99 185.17,128.58 185.57,128.16 185.97,127.73 186.36,127.3 186.76,126.86 187.16,126.41 187.55,125.96 187.95,125.48 188.35,125 188.74,124.5 189.14,123.99 189.54,123.46 189.93,122.92 190.33,122.36 190.73,121.78 191.12,121.19 191.52,120.58 191.92,119.96 192.31,119.32 192.71,118.67 193.11,118 193.5,117.33 193.9,116.64 194.3,115.95 194.69,115.25 195.09,114.55 195.49,113.85 195.89,113.14 196.28,112.44 196.68,111.74 197.08,111.05 197.47,110.36 197.87,109.69 198.27,109.02 198.66,108.37 199.06,107.72 199.46,107.09 199.85,106.48 200.25,105.88 200.65,105.29 201.04,104.72 201.44,104.15 201.84,103.6 202.23,103.07 202.63,102.54 203.03,102.02 203.42,101.51 203.82,101.01 204.22,100.51 204.61,100.02 205.01,99.53 205.41,99.04 205.8,98.56 206.2,98.07 206.6,97.58 206.99,97.09 207.39,96.6 207.79,96.11 208.19,95.62 208.58,95.12 208.98,94.63 209.38,94.13 209.77,93.64 210.17,93.15 210.57,92.66 210.96,92.17 211.36,91.69 211.76,91.21 212.15,90.73 212.55,90.26 212.95,89.8 213.34,89.33 213.74,88.87 214.14,88.41 214.53,87.96 214.93,87.5 215.33,87.04 215.72,86.59 216.12,86.13 216.52,85.67 216.91,85.21 217.31,84.74 217.71,84.28 218.1,83.81 218.5,83.35 218.9,82.89 219.29,82.42 219.69,81.97 220.09,81.52 220.48,81.07 220.88,80.64 221.28,80.21 221.68,79.8 222.07,79.4 222.47,79.02 222.87,78.64 223.26,78.28 223.66,77.94 224.06,77.61 224.45,77.29 224.85,76.98 225.25,76.69 225.64,76.39 226.04,76.11 226.44,75.82 226.83,75.54 227.23,75.26 227.63,74.97 228.02,74.69 228.42,74.39 228.82,74.1 229.21,73.79 229.61,73.48 230.01,73.17 230.4,72.85 230.8,72.53 231.2,72.2 231.59,71.88 231.99,71.55 232.39,71.23 232.78,70.91 233.18,70.6 233.58,70.29 233.98,69.99 234.37,69.71 234.77,69.43 235.17,69.17 235.56,68.91 235.96,68.67 236.36,68.44 236.75,68.22 237.15,68.01 237.55,67.81 237.94,67.61 238.34,67.41 238.74,67.22 239.13,67.03 239.53,66.84 239.93,66.64 240.32,66.44 240.72,66.23 241.12,66.01 241.51,65.77 241.91,65.52 242.31,65.26 242.7,64.98 243.1,64.68 243.5,64.37 243.89,64.04 244.29,63.69 244.69,63.33 245.08,62.95 245.48,62.56 245.88,62.15 246.27,61.74 246.67,61.32 247.07,60.89 247.47,60.46 247.86,60.03 248.26,59.6 248.66,59.18 249.05,58.77 249.45,58.36 249.85,57.98 250.24,57.6 250.64,57.25 251.04,56.91 251.43,56.59 251.83,56.3 252.23,56.02 252.62,55.77 253.02,55.54 253.42,55.33 253.81,55.14 254.21,54.97 254.61,54.82 255,54.69 255.4,54.57 255.8,54.47 256.19,54.38 256.59,54.31 256.99,54.24 257.38,54.19 257.78,54.15 258.18,54.11 258.57,54.08 258.97,54.05 259.37,54.03 259.77,54.01 260.16,54 260.56,53.99 260.96,53.98 261.35,53.98 261.75,53.97" stroke-dasharray="none" stroke="rgb(31,120,180)" stroke-width="0.75" opacity="1" stroke-opacity="1" fill="none"/>
          </g>
        </g>
        <g id="Fig:densplot_01.panel.1.1.off.vp.2">
          <g id="Fig:densplot_01.border.panel.1.1.1">
            <rect id="Fig:densplot_01.border.panel.1.1.1.1" x="44.8" y="42.19" width="231.2" height="191.81" transform="" stroke="rgb(0,0,0)" stroke-dasharray="none" stroke-width="0.75" opacity="1" fill="none" stroke-opacity="1" fill-opacity="0"/>
          </g>
        </g>
        <g id="Fig:densplot_01..1"/>
      </g>
    </g>
  </g>
</svg>